<svg width="75" height="76" viewBox="0 0 75 76" fill="none" xmlns="http://www.w3.org/2000/svg">
<path d="M2.59521 16.5194H72.4213M2.59521 16.5194V73.0485H72.4213V16.5194M2.59521 16.5194V30.6517C2.59521 35.8547 6.76383 40.0732 11.9054 40.0732H63.1112C68.2527 40.0732 72.4213 35.8547 72.4213 30.6517V16.5194M18.888 16.5194V7.09785C18.888 4.49515 20.9711 2.38708 23.5431 2.38708H51.4735C54.0454 2.38708 56.1286 4.49515 56.1286 7.09785V16.5194M42.1634 40.0732H32.8532M37.5083 49.4947C34.9364 49.4947 32.8532 47.3866 32.8532 44.784V35.3624C32.8532 32.7597 34.9364 30.6517 37.5083 30.6517C40.0802 30.6517 42.1634 32.7597 42.1634 35.3624V44.784C42.1634 47.3866 40.0802 49.4947 37.5083 49.4947Z" stroke="#00839E" stroke-width="4.6875" stroke-miterlimit="10" stroke-linejoin="round"/>
</svg>
