<svg width="96" height="89" viewBox="0 0 96 89" fill="none" xmlns="http://www.w3.org/2000/svg">
<path d="M82.0721 13.2936C73.1009 4.94203 61.1733 0.342407 48.4864 0.342407C35.7995 0.342407 23.8719 4.94203 14.9007 13.2936C5.92994 21.6454 0.989258 32.7496 0.989258 44.5608C0.989258 56.3719 5.92994 67.4761 14.9007 75.828C23.8719 84.1795 35.7995 88.7791 48.4864 88.7791C61.1733 88.7791 73.1009 84.1795 82.0721 75.828C91.0429 67.4761 95.9836 56.3719 95.9836 44.5608C95.9836 32.7496 91.0429 21.6454 82.0721 13.2936ZM48.4864 83.3088C25.5364 83.3088 6.86519 65.9265 6.86519 44.5608C6.86519 23.195 25.5364 5.81272 48.4864 5.81272C71.4364 5.81272 90.1076 23.195 90.1076 44.5608C90.1076 65.9265 71.4364 83.3088 48.4864 83.3088Z" fill="#00839E"/>
<path d="M63.3749 42.5524C67.1549 42.5524 70.2301 39.6895 70.2301 36.1704C70.2301 32.6514 67.1549 29.7884 63.3749 29.7884C59.5949 29.7884 56.5196 32.6514 56.5196 36.1704C56.5196 39.6895 59.5949 42.5524 63.3749 42.5524Z" fill="#00839E"/>
<path d="M33.598 42.5524C37.3779 42.5524 40.4532 39.6895 40.4532 36.1704C40.4532 32.6514 37.3779 29.7884 33.598 29.7884C29.818 29.7884 26.7427 32.6514 26.7427 36.1704C26.7427 39.6895 29.8182 42.5524 33.598 42.5524Z" fill="#00839E"/>
<path d="M48.4864 65.0744C39.2982 65.0744 30.9859 59.6736 27.8023 51.6352L22.2891 53.5275C26.3202 63.7061 36.8481 70.5447 48.4864 70.5447C60.1247 70.5447 70.6526 63.7061 74.6837 53.5275L69.1705 51.6352C65.9869 59.6736 57.6746 65.0744 48.4864 65.0744Z" fill="#00839E"/>
</svg>
